<svg width="30" height="28" viewBox="0 0 30 28" fill="none" xmlns="http://www.w3.org/2000/svg">
<path d="M1.59915 0.00946601C1.10178 0.108447 0.65639 0.449123 0.360966 0.95655C0.0655414 1.46398 -0.0557188 2.09659 0.0238608 2.71522C0.10344 3.33385 0.377341 3.88782 0.785308 4.25527C1.19327 4.62271 1.70189 4.77354 2.19926 4.67455H7.8253L8.16286 5.84083L9.70064 11.6722L11.2384 17.5036C11.3885 18.11 12.0261 18.6698 12.5137 18.6698H25.6411C26.1662 18.6698 26.7663 18.11 26.9163 17.5036L29.9544 5.84083C30.1044 5.23437 29.8794 4.67455 29.3543 4.67455H12.7012L11.2759 1.31569C11.1241 0.930165 10.8897 0.604221 10.5986 0.373751C10.3074 0.143282 9.97071 0.0172264 9.62563 0.00946601L2.12425 0.00946601C2.01196 -0.00315534 1.89898 -0.00315534 1.78669 0.00946601C1.71174 0.00386286 1.63659 0.00386286 1.56164 0.00946601L1.59915 0.00946601ZM13.4513 23.3349C12.4011 23.3349 11.576 24.3612 11.576 25.6675C11.576 26.9737 12.4011 28 13.4513 28C14.5015 28 15.3267 26.9737 15.3267 25.6675C15.3267 24.3612 14.5015 23.3349 13.4513 23.3349ZM24.7034 23.3349C23.6532 23.3349 22.8281 24.3612 22.8281 25.6675C22.8281 26.9737 23.6532 28 24.7034 28C25.7536 28 26.5788 26.9737 26.5788 25.6675C26.5788 24.3612 25.7536 23.3349 24.7034 23.3349Z" fill="#C0C0C0"/>
</svg>
